<?xml version="1.0" encoding="UTF-8" standalone="no"?>
<!-- Created with Inkscape (http://www.inkscape.org/) -->

<svg
   xmlns:dc="http://purl.org/dc/elements/1.1/"
   xmlns:cc="http://creativecommons.org/ns#"
   xmlns:rdf="http://www.w3.org/1999/02/22-rdf-syntax-ns#"
   xmlns:svg="http://www.w3.org/2000/svg"
   xmlns="http://www.w3.org/2000/svg"
   xmlns:sodipodi="http://sodipodi.sourceforge.net/DTD/sodipodi-0.dtd"
   xmlns:inkscape="http://www.inkscape.org/namespaces/inkscape"
   id="svg3009"
   version="1.1"
   inkscape:version="0.48.4 r9939"
   width="202"
   height="75"
   sodipodi:docname="ARM2C.svg"
   inkscape:export-filename="C:\Users\student\Documents\GitHub\sdwidgets\src\team2485\smartdashboard\extension\res\arm-c2.png"
   inkscape:export-xdpi="839.8515"
   inkscape:export-ydpi="839.8515">
  <metadata
     id="metadata3015">
    <rdf:RDF>
      <cc:Work
         rdf:about="">
        <dc:format>image/svg+xml</dc:format>
        <dc:type
           rdf:resource="http://purl.org/dc/dcmitype/StillImage" />
        <dc:title></dc:title>
      </cc:Work>
    </rdf:RDF>
  </metadata>
  <defs
     id="defs3013">
    <marker
       inkscape:stockid="Arrow1Mend"
       orient="auto"
       refY="0"
       refX="0"
       id="Arrow1Mend"
       style="overflow:visible">
      <path
         id="path4021"
         d="M 0,0 5,-5 -12.5,0 5,5 0,0 z"
         style="fill-rule:evenodd;stroke:#000000;stroke-width:1pt"
         transform="matrix(-0.4,0,0,-0.4,-4,0)"
         inkscape:connector-curvature="0" />
    </marker>
    <marker
       inkscape:stockid="Arrow1Lstart"
       orient="auto"
       refY="0"
       refX="0"
       id="Arrow1Lstart"
       style="overflow:visible">
      <path
         id="path4012"
         d="M 0,0 5,-5 -12.5,0 5,5 0,0 z"
         style="fill-rule:evenodd;stroke:#000000;stroke-width:1pt"
         transform="matrix(0.8,0,0,0.8,10,0)"
         inkscape:connector-curvature="0" />
    </marker>
    <marker
       inkscape:stockid="Arrow1Lend"
       orient="auto"
       refY="0"
       refX="0"
       id="Arrow1Lend"
       style="overflow:visible">
      <path
         id="path4015"
         d="M 0,0 5,-5 -12.5,0 5,5 0,0 z"
         style="fill-rule:evenodd;stroke:#000000;stroke-width:1pt"
         transform="matrix(-0.8,0,0,-0.8,-10,0)"
         inkscape:connector-curvature="0" />
    </marker>
    <filter
       id="filter3842"
       inkscape:label="Glow"
       inkscape:menu="Shadows and Glows"
       inkscape:menu-tooltip="Glow of object's own color at the edges"
       color-interpolation-filters="sRGB">
      <feGaussianBlur
         id="feGaussianBlur3844"
         stdDeviation="1.6000000000000001"
         result="result91" />
      <feComposite
         id="feComposite3846"
         in2="result91"
         in="SourceGraphic"
         operator="over" />
    </filter>
  </defs>
  <sodipodi:namedview
     pagecolor="#ffffff"
     bordercolor="#666666"
     borderopacity="1"
     objecttolerance="10"
     gridtolerance="10"
     guidetolerance="10"
     inkscape:pageopacity="0"
     inkscape:pageshadow="2"
     inkscape:window-width="1920"
     inkscape:window-height="1018"
     id="namedview3011"
     showgrid="false"
     inkscape:zoom="5.6159898"
     inkscape:cx="56.669417"
     inkscape:cy="53.522994"
     inkscape:window-x="-8"
     inkscape:window-y="-8"
     inkscape:window-maximized="1"
     inkscape:current-layer="svg3009"
     height="74px"
     borderlayer="false"
     inkscape:showpageshadow="false"
     showborder="true"
     width="224px"
     showguides="true"
     inkscape:guide-bbox="true">
    <inkscape:grid
       type="xygrid"
       id="grid3028"
       empspacing="5"
       visible="true"
       enabled="true"
       snapvisiblegridlinesonly="true" />
  </sodipodi:namedview>
  <g
     inkscape:groupmode="layer"
     id="layer1"
     inkscape:label="Layer" />
  <g
     id="g3828"
     style="filter:url(#filter3842)">
    <path
       sodipodi:nodetypes="csscssscsssssscsssccc"
       inkscape:connector-curvature="0"
       id="path3795"
       d="m 152.77203,55.217496 c -2.26762,-0.151958 -4.82466,-1.052365 -6.80208,-2.395206 -1.03848,-0.705215 -2.58055,-2.202495 -3.39767,-3.298987 -0.6991,-0.938106 -1.82433,-2.952028 -1.64325,-2.941054 0.0541,0.0033 0.43905,0.18314 0.85534,0.399683 0.62398,0.324584 0.8533,0.538129 1.30596,1.216151 1.3561,2.03122 2.93853,3.426401 5.06997,4.470035 2.09713,1.026832 3.00452,1.225507 5.59557,1.225153 2.36548,-3.69e-4 3.14583,-0.148152 4.97466,-0.942411 1.99376,-0.865882 4.21098,-2.715608 5.40123,-4.506 3.17604,-4.777442 3.14639,-10.807272 -0.0765,-15.567018 -0.65318,-0.964644 -2.27717,-2.588636 -3.24182,-3.241816 -2.3801,-1.611619 -4.55094,-2.264663 -7.43745,-2.237378 -1.48975,0.01408 -2.6024,0.07353 -3.06265,-0.161273 -1.03786,-0.529476 0.55671,-0.861498 3.1966,-0.873558 1.8691,-0.0085 2.5978,0.09703 4.22915,0.612707 7.14922,2.25988 11.34095,10.111366 9.41165,17.628856 -1.29454,5.044142 -5.36427,9.119186 -10.25886,10.272256 -0.84007,0.197904 -3.25963,0.397503 -4.11982,0.33986 l 0,0 z"
       style="fill:#e4c025;fill-opacity:1;fill-rule:nonzero;stroke:#e4c025;stroke-width:0.13367876000000001;stroke-linejoin:round;stroke-miterlimit:3.70000004999999990;stroke-opacity:1;stroke-dasharray:none;stroke-dashoffset:0;filter:url(#filter4037)" />
    <path
       sodipodi:nodetypes="ccc"
       inkscape:connector-curvature="0"
       id="path3826"
       d="m -0.28308694,17.423954 90.54722594,0 2.566805,0"
       style="fill:none;stroke:#e4c025;stroke-width:1px;stroke-linecap:butt;stroke-linejoin:miter;stroke-opacity:1;filter:url(#filter4138)" />
    <path
       inkscape:connector-curvature="0"
       id="path3868"
       d="m 116.53191,29.960664 7.37543,-13.079108"
       style="fill:none;stroke:#e4c025;stroke-width:1px;stroke-linecap:butt;stroke-linejoin:miter;stroke-opacity:1;filter:url(#filter4138)" />
    <path
       sodipodi:nodetypes="ccccccscc"
       inkscape:connector-curvature="0"
       id="path3828"
       d="m 92.622335,17.423954 c 23.086045,11.880683 24.198625,12.854191 24.198625,12.854191 l 15.01984,8.006695 0.83444,3.198669 9.73508,5.284758 8.90064,4.483386 c 0,0 3.33399,0.780867 5.98013,-0.728427 2.86794,-1.635807 2.94984,-1.983488 4.37779,-4.069576 l 1.53279,-2.705303"
       style="fill:none;stroke:#e4c025;stroke-width:1px;stroke-linecap:butt;stroke-linejoin:miter;stroke-opacity:1;filter:url(#filter4138)" />
    <path
       sodipodi:nodetypes="cccccsccc"
       inkscape:connector-curvature="0"
       id="path3828-4"
       d="m 161.6994,46.438486 1.48742,-2.688435 c 1.22979,-4.112932 1.36574,-7.421998 -2.25415,-10.854268 l -8.77776,-4.719408 -9.91284,-4.943304 -3.0988,1.151167 -15.17373,-7.711102 c 0,0 -5.2447,-3.153042 -28.218396,-15.2495567 L -0.5562903,1.2915352"
       style="fill:none;stroke:#e4c025;stroke-width:1px;stroke-linecap:butt;stroke-linejoin:miter;stroke-opacity:1;filter:url(#filter4138)" />
    <path
       transform="matrix(0.82871026,0,0,1.0230237,25.16744,-1.23048)"
       d="m 156.45761,40.630463 a 2.0651224,1.7209353 0 1 1 -4.13025,0 2.0651224,1.7209353 0 1 1 4.13025,0 z"
       sodipodi:ry="1.7209353"
       sodipodi:rx="2.0651224"
       sodipodi:cy="40.630463"
       sodipodi:cx="154.39249"
       id="path3920"
       style="fill:#000000;stroke:#e4c025;stroke-opacity:1;fill-opacity:0;filter:url(#filter4037)"
       sodipodi:type="arc" />
  </g>
  <path
     style="fill:#000000;stroke:#3ae425;stroke-width:1px;stroke-linecap:butt;stroke-linejoin:miter;stroke-opacity:1;fill-opacity:0;filter:url(#filter3842);opacity:0.99027553000000001"
     d="m 86.781287,48.29807 23.225113,-2.78146 -5.5629,8.06621 c 6.49305,2.38489 15.1785,7.13904 20.44368,5.42383 6.39733,-2.36423 10.43044,-6.95363 10.43044,-6.95363 l 7.37085,4.31126 c 0,0 -2.20835,3.19407 -5.56291,5.84104 -15.51344,9.60734 -23.39432,3.86684 -37.5496,-1.5298 l -6.119189,8.90065 z"
     id="path5930"
     inkscape:connector-curvature="0"
     sodipodi:nodetypes="cccccccccc" />
</svg>
