<?xml version="1.0" encoding="UTF-8" standalone="no"?>
<!-- Created with Inkscape (http://www.inkscape.org/) -->

<svg
   xmlns:dc="http://purl.org/dc/elements/1.1/"
   xmlns:cc="http://creativecommons.org/ns#"
   xmlns:rdf="http://www.w3.org/1999/02/22-rdf-syntax-ns#"
   xmlns:svg="http://www.w3.org/2000/svg"
   xmlns="http://www.w3.org/2000/svg"
   xmlns:sodipodi="http://sodipodi.sourceforge.net/DTD/sodipodi-0.dtd"
   xmlns:inkscape="http://www.inkscape.org/namespaces/inkscape"
   id="svg3009"
   version="1.1"
   inkscape:version="0.48.4 r9939"
   width="202"
   height="75"
   sodipodi:docname="ARM3C.svg"
   inkscape:export-filename="C:\Users\student\Documents\GitHub\sdwidgets\src\team2485\smartdashboard\extension\res\ARMVIC.png"
   inkscape:export-xdpi="839.8515"
   inkscape:export-ydpi="839.8515">
  <metadata
     id="metadata3015">
    <rdf:RDF>
      <cc:Work
         rdf:about="">
        <dc:format>image/svg+xml</dc:format>
        <dc:type
           rdf:resource="http://purl.org/dc/dcmitype/StillImage" />
        <dc:title></dc:title>
      </cc:Work>
    </rdf:RDF>
  </metadata>
  <defs
     id="defs3013">
    <marker
       inkscape:stockid="Arrow1Mend"
       orient="auto"
       refY="0"
       refX="0"
       id="Arrow1Mend"
       style="overflow:visible">
      <path
         id="path4021"
         d="M 0,0 5,-5 -12.5,0 5,5 0,0 z"
         style="fill-rule:evenodd;stroke:#000000;stroke-width:1pt"
         transform="matrix(-0.4,0,0,-0.4,-4,0)"
         inkscape:connector-curvature="0" />
    </marker>
    <marker
       inkscape:stockid="Arrow1Lstart"
       orient="auto"
       refY="0"
       refX="0"
       id="Arrow1Lstart"
       style="overflow:visible">
      <path
         id="path4012"
         d="M 0,0 5,-5 -12.5,0 5,5 0,0 z"
         style="fill-rule:evenodd;stroke:#000000;stroke-width:1pt"
         transform="matrix(0.8,0,0,0.8,10,0)"
         inkscape:connector-curvature="0" />
    </marker>
    <marker
       inkscape:stockid="Arrow1Lend"
       orient="auto"
       refY="0"
       refX="0"
       id="Arrow1Lend"
       style="overflow:visible">
      <path
         id="path4015"
         d="M 0,0 5,-5 -12.5,0 5,5 0,0 z"
         style="fill-rule:evenodd;stroke:#000000;stroke-width:1pt"
         transform="matrix(-0.8,0,0,-0.8,-10,0)"
         inkscape:connector-curvature="0" />
    </marker>
  </defs>
  <sodipodi:namedview
     pagecolor="#a5a5a5"
     bordercolor="#666666"
     borderopacity="1"
     objecttolerance="10"
     gridtolerance="10"
     guidetolerance="10"
     inkscape:pageopacity="0"
     inkscape:pageshadow="2"
     inkscape:window-width="1920"
     inkscape:window-height="1018"
     id="namedview3011"
     showgrid="false"
     inkscape:zoom="6.7576659"
     inkscape:cx="96.644159"
     inkscape:cy="36.620547"
     inkscape:window-x="-8"
     inkscape:window-y="-8"
     inkscape:window-maximized="1"
     inkscape:current-layer="svg3009"
     height="74px"
     borderlayer="false"
     inkscape:showpageshadow="false"
     showborder="true"
     width="224px">
    <inkscape:grid
       type="xygrid"
       id="grid3028"
       empspacing="5"
       visible="true"
       enabled="true"
       snapvisiblegridlinesonly="true" />
  </sodipodi:namedview>
  <path
     style="fill:#ffffff;stroke:#ffffff;stroke-width:0.09833916000000000;stroke-opacity:0;opacity:1;fill-opacity:1"
     d="m 115.31528,28.79551 c -1.83451,-1.05179 -8.03207,-4.34095 -15.26661,-8.10228 l -7.350307,-3.62484 -45.629918,0.78672 -47.20334393,-0.9834 0,-7.53123 0,-7.53124 48.45662193,0.0678 47.276551,0.0678 6.785406,3.59486 c 9.37473,4.96668 20.28338,10.78281 20.9231,11.25355 0.15927,0.11719 -0.30931,0.63542 -3.5035,6.30274 -1.9142,3.39628 -3.49688,6.18858 -3.51707,6.20513 -0.0202,0.0165 -0.45711,-0.21096 -0.97093,-0.50555 z"
     id="path3970"
     inkscape:connector-curvature="0"
     sodipodi:nodetypes="sscccccccssscs" />
  <g
     inkscape:groupmode="layer"
     id="layer1"
     inkscape:label="Layer">
    <path
       style="fill:none;stroke:#ffffff;stroke-width:1px;stroke-linecap:butt;stroke-linejoin:miter;stroke-opacity:1"
       d="m -0.28308694,17.423954 93.11403094,0"
       id="path3826"
       inkscape:connector-curvature="0"
       sodipodi:nodetypes="cc" />
    <path
       style="fill:none;stroke:#ffffff;stroke-width:1px;stroke-linecap:butt;stroke-linejoin:miter;stroke-opacity:1"
       d="m 92.622335,17.423954 c 23.086045,11.880683 24.198625,12.854191 24.198625,12.854191 l 15.01984,8.006695 0.83444,3.198669 9.73508,5.284758 8.90064,4.483386 c 0,0 3.33399,0.780867 5.98013,-0.728427 2.86794,-1.635807 2.94984,-1.983488 4.37779,-4.069576 l 1.53279,-2.705303"
       id="path3828"
       inkscape:connector-curvature="0"
       sodipodi:nodetypes="ccccccscc" />
    <path
       style="fill:none;stroke:#ffffff;stroke-width:1px;stroke-linecap:butt;stroke-linejoin:miter;stroke-opacity:1"
       d="m 116.53191,29.960664 7.37543,-13.079108"
       id="path3868"
       inkscape:connector-curvature="0"
       sodipodi:nodetypes="cc" />
    <path
       style="fill:none;stroke:#ffffff;stroke-width:1px;stroke-linecap:butt;stroke-linejoin:miter;stroke-opacity:1"
       d="m 163.18682,43.750051 c 0.88982,-2.366238 0.88423,-2.250288 0.57924,-5.537815 -0.28143,-3.033293 -2.83339,-5.316453 -2.83339,-5.316453 l -8.77776,-4.719408 -9.91284,-4.943304 -3.0988,1.151167 -15.17373,-7.711102 c 0,0 -5.2447,-3.153042 -28.218396,-15.2495567 L -0.5562903,1.2915352"
       id="path3828-4"
       inkscape:connector-curvature="0"
       sodipodi:nodetypes="cccccsccc" />
    <path
       style="fill:#ffffff;fill-opacity:1;stroke:#ffffff;stroke-width:0.31391317;stroke-linejoin:round;stroke-miterlimit:4;stroke-opacity:1;stroke-dasharray:none;stroke-dashoffset:0"
       d="m 151.65461,50.864026 c -0.55021,-0.141813 -9.58281,-4.784323 -14.20986,-7.30348 l -4.38479,-2.387265 -0.42854,-1.604958 -0.42854,-1.604957 -7.53392,-4.015508 c -4.14365,-2.208528 -7.52122,-4.067069 -7.50571,-4.130089 0.0279,-0.11314 6.91042,-12.351564 6.99935,-12.446076 0.0495,-0.05262 3.05745,1.447309 10.34613,5.159164 l 4.60788,2.346625 1.55444,-0.581389 1.55444,-0.581389 4.77232,2.382847 c 6.06984,3.030705 13.42902,6.972702 13.95924,7.477368 0.53759,0.511671 1.38041,1.748889 1.75664,2.578646 0.44926,0.990827 0.6305,1.986726 0.69452,3.816382 l 0.0567,1.621885 -0.33901,0.9869 c -0.50679,1.475284 -1.98747,4.030866 -3.17167,5.474116 -0.65311,0.795992 -2.89803,2.197412 -4.18171,2.610494 -0.5038,0.162118 -1.01456,0.218952 -2.2236,0.247429 -0.86326,0.02033 -1.71572,-7.32e-4 -1.89436,-0.04674 l 0,0 z m 2.34324,-8.582467 c 0.92411,-0.475338 1.37597,-1.424299 1.15929,-2.434651 -0.30725,-1.432628 -2.02435,-2.125119 -3.21812,-1.297835 -0.51676,0.358114 -0.95464,1.178065 -0.95137,1.781491 0.004,0.804765 0.57428,1.679225 1.30567,2.003373 0.46099,0.204307 1.25282,0.179976 1.70453,-0.05238 z"
       id="path3813"
       inkscape:connector-curvature="0" />
  </g>
  <path
     sodipodi:type="arc"
     style="fill:#ffffff;stroke:#ffffff;stroke-opacity:1;fill-opacity:0"
     id="path3920"
     sodipodi:cx="154.39249"
     sodipodi:cy="40.630463"
     sodipodi:rx="2.0651224"
     sodipodi:ry="1.7209353"
     d="m 156.45761,40.630463 a 2.0651224,1.7209353 0 1 1 -4.13025,0 2.0651224,1.7209353 0 1 1 4.13025,0 z"
     transform="matrix(0.82871026,0,0,1.0230237,25.16744,-1.23048)" />
  <path
     style="fill:#ffffff;stroke:#00ff00;stroke-width:1px;stroke-linecap:butt;stroke-linejoin:miter;stroke-opacity:0;fill-opacity:0"
     d="m 86.781287,48.29807 23.225113,-2.78146 -5.5629,8.06621 c 6.49305,2.38489 15.1785,7.13904 20.44368,5.42383 6.39733,-2.36423 10.43044,-6.95363 10.43044,-6.95363 l 7.37085,4.31126 c 0,0 -2.20835,3.19407 -5.56291,5.84104 -15.51344,9.60734 -23.39432,3.86684 -37.5496,-1.5298 l -6.119189,8.90065 z"
     id="path5930"
     inkscape:connector-curvature="0"
     sodipodi:nodetypes="cccccccccc" />
  <path
     style="fill:#ffffff;fill-opacity:1;stroke:#ffffff;stroke-width:0.13318208000000001;stroke-linejoin:round;stroke-miterlimit:3.70000004999999990;stroke-opacity:1;stroke-dasharray:none;stroke-dashoffset:0;opacity:1"
     d="m 113.77499,27.881685 c -3.54715,-1.945513 -13.26715,-7.04603 -17.401571,-9.131387 l -3.565432,-1.798362 -42.617346,0 c -23.43954,0 -44.3262191,-0.04397 -46.4148423,-0.09772 l -3.79749675,-0.09772 0,-7.4498235 0,-7.4498236 47.83456405,0.098426 47.834564,0.098426 5.84521,3.1008769 c 12.01899,6.3760542 21.46577,11.4718902 21.71966,11.7161402 0.0333,0.03202 -6.4972,11.586826 -6.87923,12.171876 -0.083,0.127055 -0.81786,-0.206459 -2.55808,-1.160919 z"
     id="path2999"
     inkscape:connector-curvature="0" />
  <path
     style="fill:#00ff00;fill-opacity:0;stroke:#00ff00;stroke-width:0.13300000000000001;stroke-linejoin:round;stroke-miterlimit:3.70000004999999990;stroke-opacity:0;stroke-dasharray:none;stroke-dashoffset:0"
     d="m 90.551909,58.645327 c -1.659153,-5.310636 -3.022659,-9.716602 -3.030013,-9.791036 -0.0117,-0.118437 21.219034,-2.773529 21.344074,-2.669267 0.0266,0.02216 -1.10547,1.71656 -2.51566,3.765341 -1.41018,2.048781 -2.54042,3.769504 -2.51162,3.82383 0.0288,0.05433 1.4938,0.686836 3.25556,1.405579 9.59674,3.915156 11.87352,4.604522 15.1896,4.599129 2.02737,-0.0033 2.65887,-0.173079 5.1793,-1.392466 2.42971,-1.175495 5.02315,-2.95026 6.96331,-4.76518 0.52355,-0.489755 1.03553,-0.857953 1.13774,-0.818218 0.29639,0.115227 6.09085,3.517046 6.23935,3.663008 0.18018,0.177096 -0.9085,1.463731 -2.946,3.481687 -1.36869,1.355571 -1.95054,1.809189 -3.40084,2.651369 -3.176,1.844279 -6.38939,3.141344 -9.43651,3.808984 -1.30341,0.285585 -1.94318,0.331635 -4.55024,0.32752 -2.75985,-0.0044 -3.20051,-0.04176 -4.88335,-0.414454 -2.63746,-0.58412 -5.83382,-1.692592 -11.75645,-4.077047 -2.84424,-1.14509 -5.24617,-2.081983 -5.33762,-2.081983 -0.09145,0 -1.424016,1.831253 -2.961255,4.069452 -1.53724,2.238199 -2.832726,4.069453 -2.878858,4.069453 -0.04613,0 -1.441365,-4.345066 -3.100518,-9.655701 z"
     id="path3003"
     inkscape:connector-curvature="0" />
  <path
     sodipodi:type="arc"
     style="fill:#ffffff;fill-opacity:0;stroke:#ffffff;stroke-width:2;stroke-linejoin:round;stroke-miterlimit:4;stroke-opacity:1;stroke-dasharray:none;stroke-dashoffset:0"
     id="path3799"
     sodipodi:cx="160.26244"
     sodipodi:cy="40.002708"
     sodipodi:rx="13.910129"
     sodipodi:ry="14.724019"
     d="m 174.17256,40.002708 a 13.910129,14.724019 0 1 1 -27.82025,0 13.910129,14.724019 0 1 1 27.82025,0 z"
     transform="translate(-7.1063435,0.51936114)" />
</svg>
