<?xml version="1.0" encoding="UTF-8" standalone="no"?>
<!-- Created with Inkscape (http://www.inkscape.org/) -->

<svg
   xmlns:dc="http://purl.org/dc/elements/1.1/"
   xmlns:cc="http://creativecommons.org/ns#"
   xmlns:rdf="http://www.w3.org/1999/02/22-rdf-syntax-ns#"
   xmlns:svg="http://www.w3.org/2000/svg"
   xmlns="http://www.w3.org/2000/svg"
   xmlns:sodipodi="http://sodipodi.sourceforge.net/DTD/sodipodi-0.dtd"
   xmlns:inkscape="http://www.inkscape.org/namespaces/inkscape"
   id="svg6457"
   version="1.1"
   inkscape:version="0.48.4 r9939"
   width="165"
   height="86"
   sodipodi:docname="Blinker.svg"
   inkscape:export-filename="C:\Users\Aidan\Documents\GitHub\sdwidgets\src\team2485\smartdashboard\extension\res\BlinkerNull.png"
   inkscape:export-xdpi="900"
   inkscape:export-ydpi="900">
  <metadata
     id="metadata6463">
    <rdf:RDF>
      <cc:Work
         rdf:about="">
        <dc:format>image/svg+xml</dc:format>
        <dc:type
           rdf:resource="http://purl.org/dc/dcmitype/StillImage" />
        <dc:title></dc:title>
      </cc:Work>
    </rdf:RDF>
  </metadata>
  <defs
     id="defs6461">
    <filter
       id="filter5300"
       inkscape:label="Glow"
       inkscape:menu="Shadows and Glows"
       inkscape:menu-tooltip="Glow of object's own color at the edges"
       color-interpolation-filters="sRGB"
       width="1.2">
      <feGaussianBlur
         id="feGaussianBlur5302"
         stdDeviation="1"
         result="result91" />
      <feComposite
         id="feComposite5304"
         in2="result91"
         in="SourceGraphic"
         operator="over" />
    </filter>
    <filter
       id="filter5300-1"
       inkscape:label="Glow"
       inkscape:menu="Shadows and Glows"
       inkscape:menu-tooltip="Glow of object's own color at the edges"
       color-interpolation-filters="sRGB"
       width="1.2">
      <feGaussianBlur
         id="feGaussianBlur5302-7"
         stdDeviation="1.3"
         result="result91" />
      <feComposite
         id="feComposite5304-4"
         in2="result91"
         in="SourceGraphic"
         operator="over" />
    </filter>
  </defs>
  <sodipodi:namedview
     pagecolor="#000000"
     bordercolor="#666666"
     borderopacity="1"
     objecttolerance="10"
     gridtolerance="10"
     guidetolerance="10"
     inkscape:pageopacity="0"
     inkscape:pageshadow="2"
     inkscape:window-width="1680"
     inkscape:window-height="1027"
     id="namedview6459"
     showgrid="true"
     inkscape:zoom="6.6876869"
     inkscape:cx="18.462012"
     inkscape:cy="43.495257"
     inkscape:window-x="1358"
     inkscape:window-y="-8"
     inkscape:window-maximized="1"
     inkscape:current-layer="svg6457"
     showguides="true">
    <inkscape:grid
       type="xygrid"
       id="grid6467"
       empspacing="5"
       visible="true"
       enabled="true"
       snapvisiblegridlinesonly="true" />
  </sodipodi:namedview>
  <path
     style="fill:#000000;fill-opacity:1;stroke:#000000;stroke-width:1.23271;stroke-miterlimit:4;stroke-opacity:1;stroke-dasharray:none;filter:url(#filter5300)"
     d="m 26.748355,47.564382 c -2.644849,-0.423853 -5.906733,-1.773648 -8.152595,-3.373609 -3.213112,-2.28904 -5.69896,-5.89201 -6.865822,-9.95128 -0.633197,-2.202756 -0.681575,-6.923423 -0.09308,-9.082691 1.725474,-6.331022 6.839965,-11.431032 13.172636,-13.135339 2.436386,-0.655701 6.611637,-0.655701 9.048023,0 6.406694,1.724231 11.225111,6.458521 13.08498,12.856534 0.407451,1.401647 0.485919,2.181955 0.481502,4.788111 -0.0047,2.800217 -0.0661,3.308063 -0.60948,5.046129 -1.898208,6.071522 -6.563216,10.620312 -12.670634,12.354968 -1.564704,0.444414 -5.904328,0.736151 -7.395529,0.497177 l 0,0 z m 4.932472,-2.01882 c 3.714329,-0.514939 6.791692,-2.072573 9.538623,-4.82806 1.487864,-1.492502 1.928642,-2.111415 2.843828,-3.993129 1.403281,-2.885287 1.857517,-5.047504 1.684964,-8.02064 -0.340202,-5.861873 -3.648454,-10.871638 -8.874719,-13.439195 -2.428398,-1.193023 -4.635802,-1.703093 -7.37038,-1.703093 -2.855115,0 -4.839069,0.439571 -7.278797,1.612715 -3.493005,1.67961 -5.840673,4.017637 -7.544242,7.513262 -4.645887,9.533087 1.22424,20.85063 11.806959,22.763696 1.966827,0.355548 3.154574,0.377147 5.193764,0.09443 l 0,0 z"
     id="path3789"
     inkscape:connector-curvature="0"
     transform="matrix(1.0000314,0,0,1.0011817,2.522995e-4,-0.06946003)"
     inkscape:export-filename="C:\Users\Aidan\Documents\GitHub\sdwidgets\src\team2485\smartdashboard\extension\res\BlinkerResize.png"
     inkscape:export-xdpi="751.6084"
     inkscape:export-ydpi="751.6084" />
  <path
     sodipodi:type="arc"
     style="fill:#ff0000;fill-opacity:0;fill-rule:evenodd;stroke:#e4be25;stroke-width:0.57198301;stroke-linecap:butt;stroke-linejoin:miter;stroke-miterlimit:4;stroke-opacity:1;stroke-dasharray:none;filter:url(#filter5300)"
     id="path2995"
     sodipodi:cx="52.5"
     sodipodi:cy="33.5"
     sodipodi:rx="7.5"
     sodipodi:ry="7.5"
     d="m 60,33.5 a 7.5,7.5 0 1 1 -15,0 7.5,7.5 0 1 1 15,0 z"
     transform="matrix(2.0962808,0,0,2.0996494,-80.396881,-40.779634)"
     inkscape:export-filename="C:\Users\Aidan\Documents\GitHub\sdwidgets\src\team2485\smartdashboard\extension\res\BlinkerResize.png"
     inkscape:export-xdpi="751.6084"
     inkscape:export-ydpi="751.6084" />
  <path
     sodipodi:type="arc"
     style="fill:#ff0000;fill-opacity:0;fill-rule:evenodd;stroke:#e4be25;stroke-width:0.46947565;stroke-linecap:butt;stroke-linejoin:miter;stroke-miterlimit:4;stroke-opacity:1;stroke-dasharray:none;filter:url(#filter5300)"
     id="path2995-1"
     sodipodi:cx="52.5"
     sodipodi:cy="33.5"
     sodipodi:rx="7.5"
     sodipodi:ry="7.5"
     d="m 60,33.5 a 7.5,7.5 0 1 1 -15,0 7.5,7.5 0 1 1 15,0 z"
     transform="matrix(2.556058,0,0,2.5560282,-104.69358,-56.11459)"
     inkscape:export-filename="C:\Users\Aidan\Documents\GitHub\sdwidgets\src\team2485\smartdashboard\extension\res\BlinkerResize.png"
     inkscape:export-xdpi="751.6084"
     inkscape:export-ydpi="751.6084" />
</svg>
